<?xml version="1.0" standalone="no"?>
<!DOCTYPE svg PUBLIC "-//W3C//DTD SVG 20010904//EN"
 "http://www.w3.org/TR/2001/REC-SVG-20010904/DTD/svg10.dtd">
<svg version="1.0" xmlns="http://www.w3.org/2000/svg"
 width="100.000000pt" height="100.000000pt" viewBox="0 0 100.000000 100.000000"
 preserveAspectRatio="xMidYMid meet">

<g transform="translate(0.000000,100.000000) scale(0.100000,-0.100000)"
fill="#000000" stroke="none">
<path d="M302 898 c-8 -8 -12 -59 -12 -165 0 -146 -1 -153 -20 -153 -42 0 -60
-34 -60 -115 l0 -75 -28 0 c-47 0 -52 14 -52 141 0 91 3 119 15 129 17 14 21
100 5 100 -5 0 -10 7 -10 15 0 9 -9 15 -25 15 -16 0 -25 -6 -25 -15 0 -8 -4
-15 -10 -15 -16 0 -12 -86 5 -100 12 -10 15 -38 15 -132 0 -113 1 -120 25
-143 15 -16 36 -25 55 -25 27 0 30 -3 30 -30 0 -25 -7 -35 -36 -52 -35 -20
-36 -23 -31 -66 3 -27 13 -53 26 -66 21 -21 28 -21 336 -21 308 0 315 0 336
21 13 13 23 39 26 66 5 43 4 46 -31 66 l-36 21 0 121 c0 107 -2 122 -20 140
-11 11 -24 20 -30 20 -6 0 -10 58 -10 153 0 106 -4 157 -12 165 -17 17 -409
17 -426 0z m408 -177 l0 -160 28 -13 27 -13 3 -128 3 -128 34 -21 c41 -23 46
-57 15 -88 -19 -19 -33 -20 -315 -20 -282 0 -296 1 -315 20 -31 31 -26 65 15
89 l35 20 0 124 c0 132 3 142 50 149 l25 3 3 163 2 162 195 0 195 0 0 -159z"/>
<path d="M482 664 c-19 -13 -52 -63 -52 -79 0 -3 41 -5 90 -5 50 0 90 2 90 5
0 4 -7 19 -15 35 -17 32 -51 60 -75 60 -9 0 -26 -7 -38 -16z"/>
</g>
</svg>
